<?xml version="1.0" encoding="UTF-8"?>
<svg width="640px" height="360px" viewBox="0 0 640 360" version="1.1" xmlns="http://www.w3.org/2000/svg" xmlns:xlink="http://www.w3.org/1999/xlink">
    <!-- Generator: Sketch 63.1 (92452) - https://sketch.com -->
    <title>DIALOG_BASE</title>
    <desc>Created with Sketch.</desc>
    <defs>
        <linearGradient x1="50%" y1="0%" x2="50%" y2="100%" id="linearGradient-1">
            <stop stop-color="#000B49" stop-opacity="0.97574847" offset="0%"></stop>
            <stop stop-color="#004181" offset="100%"></stop>
        </linearGradient>
        <path d="M640,336 L640,360 L616,360 L616,336 L640,336 Z M24,36 L24,336 L604,336 L604,360 L0,360 L0,36 L24,36 Z M612,336 L612,360 L608,360 L608,336 L612,336 Z M640,328 L640,332 L616,332 L616,328 L640,328 Z M640,0 L640,324 L616,324 L616,24 L36,24 L36,0 L640,0 Z M24,28 L24,32 L0,32 L0,28 L24,28 Z M24,0 L24,24 L0,24 L0,0 L24,0 Z M32,0 L32,24 L28,24 L28,0 L32,0 Z" id="path-2"></path>
    </defs>
    <g id="页面-1" stroke="none" stroke-width="1" fill="none" fill-rule="evenodd">
        <g id="DIALOG_BASE">
            <rect id="矩形" fill="url(#linearGradient-1)" x="0" y="0" width="640" height="360" rx="10"></rect>
            <mask id="mask-3" fill="white">
                <use xlink:href="#path-2"></use>
            </mask>
            <use id="形状结合" fill-opacity="0" fill="#D8D8D8" xlink:href="#path-2"></use>
            <rect id="矩形" stroke="#007FE6" stroke-width="2" mask="url(#mask-3)" x="1" y="1" width="638" height="358" rx="12"></rect>
        </g>
    </g>
</svg>