<?xml version="1.0" encoding="UTF-8"?>
<svg width="96px" height="96px" viewBox="0 0 96 96" version="1.1" xmlns="http://www.w3.org/2000/svg" xmlns:xlink="http://www.w3.org/1999/xlink">
    <!-- Generator: Sketch 63.1 (92452) - https://sketch.com -->
    <title>ico_Owner</title>
    <desc>Created with Sketch.</desc>
    <defs>
        <linearGradient x1="50%" y1="0%" x2="50%" y2="100%" id="linearGradient-1">
            <stop stop-color="#00FFE9" offset="0%"></stop>
            <stop stop-color="#00A9FF" offset="100%"></stop>
        </linearGradient>
        <radialGradient cx="50%" cy="50%" fx="50%" fy="50%" r="49.9155762%" id="radialGradient-2">
            <stop stop-color="#50FF00" offset="0%"></stop>
            <stop stop-color="#26E5FF" stop-opacity="0.154146635" offset="59.9479921%"></stop>
            <stop stop-color="#001BFF" stop-opacity="0" offset="99.9155405%"></stop>
        </radialGradient>
        <linearGradient x1="50%" y1="0%" x2="50%" y2="98.8914696%" id="linearGradient-3">
            <stop stop-color="#00FFE9" offset="0%"></stop>
            <stop stop-color="#27C2FF" offset="100%"></stop>
        </linearGradient>
    </defs>
    <g id="ico_Owner" stroke="none" stroke-width="1" fill="none" fill-rule="evenodd">
        <g id="ico_Yezhu">
            <path d="M48,20.1547005 L23.8852633,34.0773503 L23.8852633,61.9226497 L48,75.8452995 L72.1147367,61.9226497 L72.1147367,34.0773503 L48,20.1547005 Z" id="多边形" stroke="url(#linearGradient-1)" stroke-width="2" fill-opacity="0" fill="#D8D8D8"></path>
            <path d="M20.9810023,65.5149701 L45.941007,79.8862275 L45.941,96 L43.94,96 L43.941,81.042 L20.981,67.822 L0,79.902 L0,77.595 L20.9810023,65.5149701 Z M75.0209977,65.5149701 L96,77.594 L96,79.902 L75.021,67.822 L52.06,81.042 L52.059,96 L50.06,96 L50.060993,79.8862275 L75.0209977,65.5149701 Z M0,22.285 L18.9210094,33.1796407 L18.9210094,61.9221557 L0,72.816 L0,70.507 L16.921,60.765 L16.921,34.335 L0,24.591 L0,22.285 Z M96,22.286 L96,24.592 L79.08,34.335 L79.08,60.765 L96,70.507 L96,72.815 L77.0809906,61.9221557 L77.0809906,33.1796407 L96,22.286 Z M45.941,0 L45.941007,16.1137725 L20.9810023,30.4850299 L0,18.404 L0,16.097 L20.981,28.177 L43.941,14.957 L43.94,0 L45.941,0 Z M52.059,0 L52.06,14.957 L75.021,28.177 L96,16.097 L96,18.405 L75.0209977,30.4850299 L50.060993,16.1137725 L50.06,0 L52.059,0 Z" id="形状结合" fill="url(#radialGradient-2)" fill-rule="nonzero"></path>
            <path d="M48,31 C51.8659932,31 55,34.1340068 55,38 L55,42.5 C55,44.0737865 54.2590292,45.5557281 53,46.5 L51.8,47.4 C51.2963883,47.7777088 51,48.3704854 51,49 C51,49.6203971 51.3255068,50.1953041 51.8574929,50.5144958 L58.8562677,54.7137606 C60.1862329,55.5117398 61,56.9490073 61,58.5 C61,59.8807119 59.8807119,61 58.5,61 L37.5,61 C36.1192881,61 35,59.8807119 35,58.5 C35,57.026557 35.7344248,55.6557508 36.9481462,54.8381865 L37.1437323,54.7137606 L44.1425071,50.5144958 C44.6744932,50.1953041 45,49.6203971 45,49 C45,48.427714 44.755051,47.88579 44.3321439,47.5082098 L44.2,47.4 L43,46.5 C41.8072355,45.6054266 41.079432,44.228291 41.0061252,42.7476644 L41,42.5 L41,38 C41,34.2145483 44.0047834,31.1309013 47.7593502,31.004059 L48,31 Z M61.5,43 C61.7761424,43 62,43.2238576 62,43.5 L62,45 C62,45.2761424 61.7761424,45.5 61.5,45.5 L59.5,45.5 C59.2238576,45.5 59,45.2761424 59,45 L59,43.5 C59,43.2238576 59.2238576,43 59.5,43 L61.5,43 Z M61.5,39 C61.7761424,39 62,39.2238576 62,39.5 L62,41 C62,41.2761424 61.7761424,41.5 61.5,41.5 L57.5,41.5 C57.2238576,41.5 57,41.2761424 57,41 L57,39.5 C57,39.2238576 57.2238576,39 57.5,39 L61.5,39 Z M61.5,35 C61.7761424,35 62,35.2238576 62,35.5 L62,37 C62,37.2761424 61.7761424,37.5 61.5,37.5 L57.5,37.5 C57.2238576,37.5 57,37.2761424 57,37 L57,35.5 C57,35.2238576 57.2238576,35 57.5,35 L61.5,35 Z" id="形状结合" fill="url(#linearGradient-3)" fill-rule="nonzero"></path>
        </g>
    </g>
</svg>