<?xml version="1.0" encoding="UTF-8"?>
<svg width="56px" height="56px" viewBox="0 0 56 56" version="1.1" xmlns="http://www.w3.org/2000/svg" xmlns:xlink="http://www.w3.org/1999/xlink">
    <!-- Generator: Sketch 63.1 (92452) - https://sketch.com -->
    <title>ico_Constraction_Build</title>
    <desc>Created with Sketch.</desc>
    <defs>
        <linearGradient x1="50%" y1="100%" x2="50%" y2="3.061617e-15%" id="linearGradient-1">
            <stop stop-color="#E6FEFF" offset="0%"></stop>
            <stop stop-color="#36C6FF" offset="100%"></stop>
        </linearGradient>
        <path d="M20.9599884,6 L45.8672227,10.4543391 L45.9200228,10.4543391 L45.9200228,14.011305 L35.6147381,14.011305 L35.6147381,21.7485979 L34.8843372,21.7485979 L34.8843372,14.011305 L33.0196159,14.011305 L33.0196159,21.7485979 L32.2892151,21.7485979 L32.2892151,14.011305 L22.4575368,14.011305 L22.4575368,10.4525817 L42.4599884,10.5 L20.9599884,7 L21.064815,44.1611932 L23.6136168,45.825276 L23.6136168,50 L11.9599884,50 L11.9599884,45.8463952 L14.5114285,44.1611932 L14.4759103,14.0148499 L6.00352,14.0148499 L6.00352,10.4587649 L6,10.4543649 L13.9599884,6 L20.9599884,6 Z M50,26 L50,50 L50,50 L32,50 L31.981979,35.5899832 L34.4239819,35.5899832 L34.4239819,38.4719866 L39.2419875,38.4719866 L39.2419875,33.4779808 L36.6239844,33.4779808 L36.6239844,31.937979 L39.2859875,31.937979 L39.2859875,30.7059775 L42.1899909,30.7059775 L42.1899909,31.937979 L47.0079965,31.937979 L47,27.5 L44,27.5 L44,26 L50,26 Z M47.0079965,40.0779885 L42.1899909,40.0779885 L42.1899909,44.3899935 L47.0079965,44.3899935 L47.0079965,40.0779885 Z M39.2419875,40.0779885 L34.4239819,40.0779885 L34.4239819,44.3899935 L39.2419875,44.3899935 L39.2419875,40.0779885 Z M47.0079965,33.4999808 L42.1899909,33.4999808 L42.1899909,38.4939866 L47.0079965,38.4939866 L47.0079965,33.4999808 Z M33.6171237,25.1471722 C33.6637629,25.1603722 33.701603,25.1946923 33.744723,25.2140523 C33.8573631,25.2642124 33.9805633,25.2844524 34.1028834,25.2694924 C34.1789842,25.259357 34.2511507,25.2296413 34.3123237,25.1832523 C34.3299206,25.1685479 34.3502599,25.157481 34.3721638,25.1506922 C34.4663239,25.1322122 34.4320038,25.2826924 34.4381638,25.3328524 C34.4619239,25.4930126 34.4152838,25.6320528 34.2824037,25.7816529 C34.2524836,25.810693 34.2260836,25.845013 34.1961636,25.8793331 C33.9436033,26.1565334 33.6848821,26.4425337 33.5405628,26.8182959 C33.4543227,27.0514961 33.3848026,27.3234156 33.5405628,27.5988585 C33.6567229,27.8258988 33.9013632,27.9526189 34.1495252,27.9138989 C34.4196855,27.8795788 34.6212066,27.7097386 34.7303259,27.4246174 C34.7602459,27.3445373 34.790166,27.2662172 34.823606,27.1861372 C34.9028061,26.9714169 34.9872862,26.7514175 35.0788063,26.5437364 C35.1285891,26.4338094 35.207005,26.3392849 35.3058465,26.2700561 C35.3357666,26.2445361 35.4158467,26.2436561 35.4475267,26.2559761 C35.4519267,26.2788561 35.4668867,26.3518962 35.4607267,26.4055763 C35.4343267,26.6827766 35.4008867,26.9678961 35.3674466,27.238939 L35.3296066,27.5838994 C35.2759265,28.0502999 35.1201663,28.386462 34.8579252,28.6161389 C34.756725,28.704139 34.6423249,28.775419 34.5182448,28.8273391 C33.9990442,29.0464594 33.4921627,28.9549393 33.044243,28.5686188 C32.3578423,27.975499 32.2566421,27.0822979 32.7908028,26.4020546 C32.9122429,26.2612544 33.0486431,26.1354143 33.1956032,26.0245341 C33.2598433,25.9752541 33.3276034,25.923334 33.3848034,25.8661339 L33.3980035,25.8573339 C33.4015235,25.8529339 33.4112035,25.8485339 33.4164835,25.8414939 L33.4543235,25.8186139 C33.5907237,25.7174138 33.6681638,25.5906936 33.6716838,25.4551735 C33.6734438,25.3636534 33.5652037,25.2351732 33.6171237,25.1471722 Z M32.1387203,22.2132471 L35.9236055,22.2132471 C35.9521106,22.2132233 35.9802994,22.2192209 36.0063257,22.2308471 C36.0476857,22.2519671 36.0696857,22.2862872 36.1031258,22.3399672 C36.1524058,22.4200473 36.1911259,22.5071674 36.2157659,22.5978075 C36.2887935,22.8457761 36.2131855,23.1136565 36.0212857,23.2868466 L35.9086455,23.3977267 C35.7836854,23.5297268 35.6622452,23.659087 35.5337651,23.7875671 L35.0471262,24.2891677 L34.6106449,24.7362065 C34.4883247,24.8664467 34.3686446,25.0213269 34.1926444,25.0723669 C34.035086,25.1167283 33.867093,25.10586 33.716563,25.0415669 C33.5933628,24.9843669 33.5009627,24.8699667 33.4059226,24.7705266 L33.0011221,24.3534061 C32.840082,24.1906059 32.6843218,24.0242857 32.5250407,23.8623673 L32.1290403,23.4549268 L31.9627201,23.2868466 C31.7499287,23.0984645 31.6775121,22.7971999 31.7814398,22.532684 C31.8104799,22.4508439 31.8491999,22.3725238 31.8976,22.2994837 C31.90992,22.2783637 31.924,22.2519636 31.94424,22.2326036 C31.9882401,22.1965271 32.0788802,22.2132471 32.1387203,22.2132471 Z" id="path-2"></path>
        <filter x="-22.2%" y="-22.2%" width="144.3%" height="144.3%" filterUnits="objectBoundingBox" id="filter-3">
            <feMorphology radius="0.25" operator="dilate" in="SourceAlpha" result="shadowSpreadOuter1"></feMorphology>
            <feOffset dx="0" dy="0" in="shadowSpreadOuter1" result="shadowOffsetOuter1"></feOffset>
            <feGaussianBlur stdDeviation="3" in="shadowOffsetOuter1" result="shadowBlurOuter1"></feGaussianBlur>
            <feColorMatrix values="0 0 0 0 0   0 0 0 0 0.55354021   0 0 0 0 1  0 0 0 0.70036604 0" type="matrix" in="shadowBlurOuter1"></feColorMatrix>
        </filter>
    </defs>
    <g id="ico_Constraction_Build" stroke="none" stroke-width="1" fill="none" fill-rule="evenodd">
        <g>
            <rect id="矩形" fill-opacity="0" fill="#D8D8D8" x="0" y="0" width="56" height="56"></rect>
            <g id="形状结合" fill-rule="nonzero">
                <use fill="black" fill-opacity="1" filter="url(#filter-3)" xlink:href="#path-2"></use>
                <use fill="url(#linearGradient-1)" xlink:href="#path-2"></use>
            </g>
        </g>
    </g>
</svg>