<?xml version="1.0" encoding="UTF-8"?>
<svg width="56px" height="56px" viewBox="0 0 56 56" version="1.1" xmlns="http://www.w3.org/2000/svg" xmlns:xlink="http://www.w3.org/1999/xlink">
    <!-- Generator: Sketch 63.1 (92452) - https://sketch.com -->
    <title>ico_Vehicle</title>
    <desc>Created with Sketch.</desc>
    <defs>
        <linearGradient x1="50%" y1="100%" x2="50%" y2="3.061617e-15%" id="linearGradient-1">
            <stop stop-color="#E6FEFF" offset="0%"></stop>
            <stop stop-color="#36C6FF" offset="100%"></stop>
        </linearGradient>
        <path d="M22.4894657,11.2990611 C25.4673858,10.900313 30.4877802,10.900313 33.4704197,11.2990611 C35.5658183,11.6746262 37.6564976,11.971369 39.6244733,12.4628492 C41.0874768,12.7966848 42.2578797,13.7842819 42.7203775,15.0686218 C43.5698635,17.220007 44.4618237,21.3482091 45.4009776,23.4625014 C45.5708748,23.8195201 46.0711276,24.3434566 46.3637283,24.3063637 C48.0249452,24.055987 49.6059329,25.0389475 49.9221305,26.5180248 C50.0259565,26.8982265 50.0259565,27.3016112 49.9221305,27.6818129 L47.5341311,28.2613887 C47.6804315,29.0032456 47.7795382,31.7590124 47.8267318,32.5101426 L47.8267318,42.89614 C47.7936963,43.5359917 47.5435699,44.143387 47.1141075,44.6209575 C44.9007248,45.0011592 42.6401483,45.0428886 40.4173268,44.732236 C38.8693747,43.8512809 39.8321254,42.3675669 39.3271532,41.166686 L16.9866846,41.166686 C16.5902579,42.4417526 16.3590089,44.579228 15.896511,44.732236 C13.6264959,45.0892547 11.2998483,45.0892547 9.02983314,44.732236 C8.55317714,44.1758433 8.28889263,43.4710792 8.27473454,42.743132 C8.14731165,41.2408717 8.14731165,39.8174336 8.14731165,38.3522661 C8.14731165,35.635215 8.14731165,30.9135273 8.27473454,28.1779298 L6.0566324,27.6539933 C5.98112253,27.3526139 5.98112253,27.0373247 6.0566324,26.7359453 C6.68430811,25.2336849 7.5243553,24.0745334 9.67638631,24.2414513 C9.92651273,24.2414513 10.4078881,23.7917005 10.5541884,23.4532282 C11.3517613,21.7886867 12.0502275,18.0777791 12.6495871,16.3344152 C13.4565987,13.7657355 15.9625822,11.9157297 18.9310635,11.7024458 C20.0825889,11.5169816 21.2765886,11.38252 22.4281139,11.2156022 L22.4894657,11.2990611 Z M13.2347885,24.8905761 C22.2770942,26.6014837 33.5695264,26.6014837 42.6165515,24.8905761 C41.8425754,22.80874 41.0685994,18.9540976 40.5211529,17.0762722 C40.1860779,15.6018315 38.7277937,14.5539585 37.0476993,14.5817781 C32.7153211,14.4148603 26.359346,14.2803987 22.0269678,14.2433059 C20.6158773,14.2943086 19.2095062,14.489046 17.8408899,14.8228817 C17.2273723,14.9295236 16.6799258,15.2633592 16.3118153,15.7594761 C15.1414124,18.031413 14.2636103,22.3775356 13.2347885,24.8905761 Z M17.2604079,35.6305784 C17.8220125,35.5192999 18.3175459,35.1901008 18.6195854,34.7125304 C18.7234114,34.4296975 18.2420361,33.7388432 17.8220125,33.5672887 C16.1136019,32.8486148 14.3674364,32.222673 12.5882353,31.6940999 C11.7104332,31.4298134 10.7052082,31.4854526 10.4928367,32.5936015 C10.0728131,34.2256868 10.4928367,35.1251884 11.8567335,35.3894749 C12.9233103,35.5749391 13.9474128,35.6166686 15.122535,35.7094007 L15.0187089,35.741857 C15.7690882,35.7789498 16.5194674,35.741857 17.2604079,35.6305784 Z M41.1488286,35.741857 C42.2484409,35.6723079 43.3480533,35.5471195 44.4382269,35.3662919 C46.0050565,35.0463661 45.6747008,33.905761 45.6322265,32.9088907 C45.5897522,31.916657 45.0045508,31.4437232 44.1456262,31.6709169 C42.0030339,32.2412194 39.9076353,32.9552568 37.8641497,33.8083923 C36.9438733,34.2025038 37.2789483,35.2921062 38.3266476,35.4961168 C39.2610821,35.6213052 40.2049553,35.6954909 41.153548,35.7233105 L41.153548,35.741857 L41.1488286,35.741857 Z" id="path-2"></path>
        <filter x="-20.5%" y="-26.5%" width="140.9%" height="152.9%" filterUnits="objectBoundingBox" id="filter-3">
            <feOffset dx="0" dy="0" in="SourceAlpha" result="shadowOffsetOuter1"></feOffset>
            <feGaussianBlur stdDeviation="3" in="shadowOffsetOuter1" result="shadowBlurOuter1"></feGaussianBlur>
            <feColorMatrix values="0 0 0 0 0   0 0 0 0 0.55354021   0 0 0 0 1  0 0 0 0.70036604 0" type="matrix" in="shadowBlurOuter1"></feColorMatrix>
        </filter>
    </defs>
    <g id="ico_Vehicle" stroke="none" stroke-width="1" fill="none" fill-rule="evenodd">
        <g id="ico_CAR">
            <rect id="矩形" fill-opacity="0" fill="#D8D8D8" x="0" y="0" width="56" height="56"></rect>
            <g id="形状" fill-rule="nonzero">
                <use fill="black" fill-opacity="1" filter="url(#filter-3)" xlink:href="#path-2"></use>
                <use fill="url(#linearGradient-1)" xlink:href="#path-2"></use>
            </g>
        </g>
    </g>
</svg>