<?xml version="1.0" encoding="UTF-8"?>
<svg width="96px" height="96px" viewBox="0 0 96 96" version="1.1" xmlns="http://www.w3.org/2000/svg" xmlns:xlink="http://www.w3.org/1999/xlink">
    <!-- Generator: Sketch 63.1 (92452) - https://sketch.com -->
    <title>ico_alert_Helmet</title>
    <desc>Created with Sketch.</desc>
    <defs>
        <linearGradient x1="50%" y1="0%" x2="50%" y2="100%" id="linearGradient-1">
            <stop stop-color="#FF3900" offset="0%"></stop>
            <stop stop-color="#FF8B8B" offset="100%"></stop>
        </linearGradient>
        <linearGradient x1="50%" y1="-2.48949813e-15%" x2="50%" y2="100%" id="linearGradient-2">
            <stop stop-color="#FF5700" offset="0%"></stop>
            <stop stop-color="#FFE18E" offset="100%"></stop>
        </linearGradient>
        <radialGradient cx="50%" cy="50%" fx="50%" fy="50%" r="49.9155762%" id="radialGradient-3">
            <stop stop-color="#FF0000" offset="0%"></stop>
            <stop stop-color="#FF6600" stop-opacity="0.15" offset="60.9352172%"></stop>
            <stop stop-color="#FF5400" stop-opacity="0" offset="99.9155405%"></stop>
        </radialGradient>
        <path d="M20.9810023,65.5149701 L45.941007,79.8862275 L45.941,96 L43.94,96 L43.941,81.042 L20.981,67.822 L0,79.902 L0,77.595 L20.9810023,65.5149701 Z M75.0209977,65.5149701 L96,77.594 L96,79.902 L75.021,67.822 L52.06,81.042 L52.059,96 L50.06,96 L50.060993,79.8862275 L75.0209977,65.5149701 Z M0,22.285 L18.9210094,33.1796407 L18.9210094,61.9221557 L0,72.816 L0,70.507 L16.921,60.765 L16.921,34.335 L0,24.591 L0,22.285 Z M96,22.286 L96,24.592 L79.08,34.335 L79.08,60.765 L96,70.507 L96,72.815 L77.0809906,61.9221557 L77.0809906,33.1796407 L96,22.286 Z M45.941,0 L45.941007,16.1137725 L20.9810023,30.4850299 L0,18.404 L0,16.097 L20.981,28.177 L43.941,14.957 L43.94,0 L45.941,0 Z M52.059,0 L52.06,14.957 L75.021,28.177 L96,16.097 L96,18.405 L75.0209977,30.4850299 L50.060993,16.1137725 L50.06,0 L52.059,0 Z" id="path-4"></path>
    </defs>
    <g id="ico_alert_Helmet" stroke="none" stroke-width="1" fill="none" fill-rule="evenodd">
        <g id="ico_alert_Anquanmao">
            <path d="M48,20.1547005 L23.8852633,34.0773503 L23.8852633,61.9226497 L48,75.8452995 L72.1147367,61.9226497 L72.1147367,34.0773503 L48,20.1547005 Z" id="多边形" stroke="url(#linearGradient-1)" stroke-width="2" fill-opacity="0" fill="#D8D8D8"></path>
            <path d="M48.0013277,34.0025709 C48.3654603,34.0025709 48.8693181,34.0339208 49.5107843,34.0945306 L49.5107843,34.0945306 C49.8049583,34.1232404 50.0401725,34.3485177 50.0781537,34.6379289 C51.0710501,42.0323247 51.4372997,48.6429731 51.1790196,54.4677841 L51.1790196,54.4677838 C51.1486611,55.0441419 51.5973289,55.5356658 52.1811484,55.5656376 C52.7649679,55.5956082 53.262855,55.1526746 53.2932148,54.5763165 C53.2935056,54.5707956 53.2937521,54.5652724 53.2939541,54.5597477 L53.3722849,52.5011044 C53.6093945,45.1108885 53.2664324,39.3989372 52.3306964,35.3422604 L52.3306966,35.3422605 C57.7892121,37.1318172 61.5459502,42.0823252 61.7515687,47.75682 L61.7621539,48.2437884 L63.5764657,50.6305606 L63.5764657,50.6305606 C64.2779932,51.5539784 64.0884279,52.8639893 63.1530557,53.556551 C63.1530557,53.556551 63.1530557,53.556551 63.1530557,53.556551 L63.0302668,53.6401508 L60.7311506,55.094786 C57.4603085,57.6738376 59.6112312,60 47.9547544,60 L46.6443005,59.98955 C36.4316518,59.8202606 37.9516936,57.6153178 35.2842107,55.1198659 L32.963924,53.6422408 L32.963924,53.6422408 C31.9837663,53.0135839 31.705146,51.7196854 32.3415114,50.7517802 L32.4219593,50.6368306 L34.2405051,48.2437884 L34.240505,48.2422581 C34.2405041,42.3572292 38.0770957,37.1407695 43.7454306,35.3187853 L43.5972371,36.1819525 C43.0086973,39.9648401 42.7186614,46.0509003 42.7101932,54.5111927 L42.7101932,54.5111928 C42.7101933,55.0883281 43.1841114,55.5561894 43.7687182,55.5561894 C44.353325,55.5561893 44.8272431,55.0883281 44.8272431,54.5111928 L44.8526477,50.7283052 L44.8992228,48.1199937 L44.9457979,46.4208292 C45.0558845,42.8866508 45.3903784,38.9574636 45.9492796,34.6353577 L45.9492796,34.6353579 C45.9874506,34.3452473 46.223771,34.1197533 46.518766,34.0919597 C47.153881,34.0292599 47.6513877,34 48.002818,34 L48.0013277,34.0025709 Z" id="路径" fill="url(#linearGradient-2)"></path>
            <mask id="mask-5" fill="white">
                <use xlink:href="#path-4"></use>
            </mask>
            <use id="形状结合" fill="url(#radialGradient-3)" xlink:href="#path-4"></use>
        </g>
    </g>
</svg>