<?xml version="1.0" encoding="UTF-8"?>
<svg width="56px" height="56px" viewBox="0 0 56 56" version="1.1" xmlns="http://www.w3.org/2000/svg" xmlns:xlink="http://www.w3.org/1999/xlink">
    <!-- Generator: Sketch 63.1 (92452) - https://sketch.com -->
    <title>ico_Member</title>
    <desc>Created with Sketch.</desc>
    <defs>
        <linearGradient x1="50%" y1="100%" x2="50%" y2="3.061617e-15%" id="linearGradient-1">
            <stop stop-color="#E6FEFF" offset="0%"></stop>
            <stop stop-color="#36C6FF" offset="100%"></stop>
        </linearGradient>
        <path d="M20.8007027,31.7416519 C21.1710839,31.6037604 21.6207124,31.4717267 22.1546713,31.1394878 C22.9321285,30.6531983 23.5298825,29.6439583 22.0864662,28.4080525 C17.2984085,21.5186317 19.0440346,16.9440094 19.7687052,15.2211072 C19.1606498,14.983433 18.4734145,14.8462822 17.6797982,14.8462822 L17.4304086,14.8462822 C12.8499286,14.8462822 11.6331108,19.0035607 11.5428889,21.3388948 C11.4798009,26.8384602 14.8493544,29.0314927 14.8493544,29.0314927 C14.8493544,29.0314927 15.0613086,29.3219535 15.0613086,30.1617581 C15.0613086,30.3524698 14.9337186,30.9274999 14.7224714,31.096969 C12.8447779,32.6181175 6.56560075,34.2031283 6.13139087,37.4780498 C5.8988674,38.4242355 6.03605187,39.4070486 6.08372137,40.3202427 C7.11056815,41.1087083 10.4009081,41.7739604 10.4009081,41.7739604 C10.4009081,41.7739604 10.6759504,40.9451305 10.9509926,39.576484 C11.3529515,37.5477362 14.0975498,34.2720741 20.8006691,31.7416519 L20.8007027,31.7416519 Z M49.8745183,37.4472801 C49.4248899,34.1767351 42.9813944,32.5917579 41.0560651,31.0756591 C40.8338094,30.9011066 40.7069601,30.3304866 40.7069601,30.1405155 C40.7069601,29.3006773 40.9181737,29.0153673 40.9181737,29.0153673 C40.9181737,29.0153673 44.3727984,26.8281587 44.3089697,21.3337777 C44.2136307,19.0035607 42.7591724,14.8462822 38.2732908,14.8462822 L38.0195248,14.8462822 C37.0513223,14.8462822 36.2423547,15.0311025 35.5440773,15.331831 C36.5012378,18.539288 37.6542606,24.4297702 32.8038555,28.3758015 C30.8990281,31.2128436 37.2412933,32.8719172 36.2584802,32.4281802 C41.9919493,35.0063055 43.5366296,36.9822668 43.9598647,39.0220231 C44.3089697,40.7280593 44.5099492,41.7688433 44.5099492,41.7688433 C44.5099492,41.7688433 48.8109768,41.113859 49.9221878,40.2791715 C49.9698573,39.3755719 50.1128995,38.3927252 49.8745183,37.4472801 Z M31.1579449,31.1703248 C30.8880197,30.9531862 30.7288857,30.2402983 30.7288857,30.0077748 C30.7288857,28.9669908 30.9885094,28.6075843 30.9885094,28.6075843 C30.9833924,28.6134757 35.2308928,26.314769 35.1465285,19.0615653 C35.0306876,16.1664849 33.2475925,11 27.7400149,11 L27.4282779,11 C21.6676412,11 20.1383795,16.1614015 20.0224712,19.0622386 C19.9432577,25.8930151 24.1804904,28.6082913 24.1804904,28.6082913 C24.1804904,28.6082913 24.6939137,29.1950705 24.6939137,30.2358545 C24.6939137,30.4735287 24.2861308,30.9597846 24.0162056,31.1710318 C21.6515157,33.0567712 13.1403894,34.958636 12.5895643,39.0264332 C12.1612121,40.7493355 9.63809518,43.4858879 18.0392046,44.5897599 C20.3554844,44.8904885 23.4976315,45.0709324 27.7458726,45.0709324 C47.2340455,45.0709324 43.2029094,41.298713 42.657942,39.0902282 C42.1027068,35.022431 33.5226348,33.0567712 31.1572042,31.1710318 L31.1579449,31.1703248 Z" id="path-2"></path>
        <filter x="-22.2%" y="-28.6%" width="144.3%" height="157.2%" filterUnits="objectBoundingBox" id="filter-3">
            <feMorphology radius="0.25" operator="dilate" in="SourceAlpha" result="shadowSpreadOuter1"></feMorphology>
            <feOffset dx="0" dy="0" in="shadowSpreadOuter1" result="shadowOffsetOuter1"></feOffset>
            <feGaussianBlur stdDeviation="3" in="shadowOffsetOuter1" result="shadowBlurOuter1"></feGaussianBlur>
            <feColorMatrix values="0 0 0 0 0   0 0 0 0 0.55354021   0 0 0 0 1  0 0 0 0.70036604 0" type="matrix" in="shadowBlurOuter1"></feColorMatrix>
        </filter>
    </defs>
    <g id="ico_Member" stroke="none" stroke-width="1" fill="none" fill-rule="evenodd">
        <g id="编组-18">
            <rect id="矩形" fill-opacity="0" fill="#D8D8D8" x="0" y="0" width="56" height="56"></rect>
            <g id="形状" fill-rule="nonzero">
                <use fill="black" fill-opacity="1" filter="url(#filter-3)" xlink:href="#path-2"></use>
                <use fill="url(#linearGradient-1)" xlink:href="#path-2"></use>
            </g>
        </g>
    </g>
</svg>