<?xml version="1.0" encoding="UTF-8"?>
<svg width="96px" height="96px" viewBox="0 0 96 96" version="1.1" xmlns="http://www.w3.org/2000/svg" xmlns:xlink="http://www.w3.org/1999/xlink">
    <!-- Generator: Sketch 63.1 (92452) - https://sketch.com -->
    <title>ico_Guest</title>
    <desc>Created with Sketch.</desc>
    <defs>
        <linearGradient x1="50%" y1="0%" x2="50%" y2="100%" id="linearGradient-1">
            <stop stop-color="#FFB100" offset="0%"></stop>
            <stop stop-color="#FFF58B" offset="100%"></stop>
        </linearGradient>
        <linearGradient x1="50%" y1="0%" x2="50%" y2="98.8914696%" id="linearGradient-2">
            <stop stop-color="#FFB201" offset="0%"></stop>
            <stop stop-color="#FFF58B" offset="100%"></stop>
        </linearGradient>
        <radialGradient cx="50%" cy="50%" fx="50%" fy="50%" r="49.831295%" id="radialGradient-3">
            <stop stop-color="#FF8D00" offset="0%"></stop>
            <stop stop-color="#FFE526" stop-opacity="0.15" offset="60.3564365%"></stop>
            <stop stop-color="#777600" stop-opacity="0" offset="99.9155405%"></stop>
        </radialGradient>
        <path d="M20.9800023,65.5149701 L45.940007,79.8862275 L45.94,96 L43.939,96 L43.94,81.042 L20.98,67.822 L-0.001,79.902 L-0.001,77.595 L20.9800023,65.5149701 Z M75.0199977,65.5149701 L95.999,77.594 L95.999,79.902 L75.02,67.822 L52.059,81.042 L52.058,96 L50.059,96 L50.059993,79.8862275 L75.0199977,65.5149701 Z M-0.001,22.285 L18.9200094,33.1796407 L18.9200094,61.9221557 L-0.001,72.816 L-0.001,70.507 L16.92,60.765 L16.92,34.335 L-0.001,24.591 L-0.001,22.285 Z M95.999,22.286 L95.999,24.592 L79.079,34.335 L79.079,60.765 L95.999,70.507 L95.999,72.815 L77.0799906,61.9221557 L77.0799906,33.1796407 L95.999,22.286 Z M45.94,0 L45.940007,16.1137725 L20.9800023,30.4850299 L-0.001,18.404 L-0.001,16.097 L20.98,28.177 L43.94,14.957 L43.939,0 L45.94,0 Z M52.058,0 L52.059,14.957 L75.02,28.177 L95.999,16.097 L95.999,18.405 L75.0199977,30.4850299 L50.059993,16.1137725 L50.059,0 L52.058,0 Z" id="path-4"></path>
    </defs>
    <g id="ico_Guest" stroke="none" stroke-width="1" fill="none" fill-rule="evenodd">
        <g id="ico_Fangke">
            <path d="M48,20.1547005 L23.8852633,34.0773503 L23.8852633,61.9226497 L48,75.8452995 L72.1147367,61.9226497 L72.1147367,34.0773503 L48,20.1547005 Z" id="多边形" stroke="url(#linearGradient-1)" stroke-width="2" fill-opacity="0" fill="#D8D8D8"></path>
            <path d="M48,31 C51.8659932,31 55,34.1340068 55,38 L55,42.5 C55,44.0737865 54.2590292,45.5557281 53,46.5 L51.8,47.4 C51.2963883,47.7777088 51,48.3704854 51,49 C51,49.6203971 51.3255068,50.1953041 51.8574929,50.5144958 L58.8562677,54.7137606 C60.1862329,55.5117398 61,56.9490073 61,58.5 C61,59.8807119 59.8807119,61 58.5,61 L37.5,61 C36.1192881,61 35,59.8807119 35,58.5 C35,57.026557 35.7344248,55.6557508 36.9481462,54.8381865 L37.1437323,54.7137606 L44.1425071,50.5144958 C44.6744932,50.1953041 45,49.6203971 45,49 C45,48.427714 44.755051,47.88579 44.3321439,47.5082098 L44.2,47.4 L43,46.5 C41.8072355,45.6054266 41.079432,44.228291 41.0061252,42.7476644 L41,42.5 L41,38 C41,34.2145483 44.0047834,31.1309013 47.7593502,31.004059 L48,31 Z M59.3564142,42.8807632 C60.0716103,43.0723994 60.4960394,43.8075322 60.3044032,44.5227283 L60.2219222,44.8305517 C60.030286,45.5457478 59.2951531,45.9701769 58.5799571,45.7785407 C57.864761,45.5869045 57.4403319,44.8517717 57.6319681,44.1365756 L57.7144491,43.8287522 C57.9060853,43.1135561 58.6412181,42.689127 59.3564142,42.8807632 Z M61.7488861,33.1793166 C61.8147818,33.1901413 61.8801012,33.2042213 61.9446047,33.221505 C63.0240869,33.5107514 63.6646996,34.6203252 63.3754532,35.6998074 C63.3581696,35.7643108 63.3377035,35.8279191 63.3141301,35.8903988 L61.3834721,41.0074772 C61.1148544,41.71943 60.3502465,42.1117836 59.6152332,41.9148374 C58.88022,41.7178912 58.4142269,40.9957991 58.5375736,40.244921 L59.4241139,34.8480721 C59.6052679,33.7452899 60.6461039,32.9981626 61.7488861,33.1793166 Z" id="形状结合" fill="url(#linearGradient-2)" fill-rule="nonzero"></path>
            <mask id="mask-5" fill="white">
                <use xlink:href="#path-4"></use>
            </mask>
            <use id="形状结合" fill="url(#radialGradient-3)" fill-rule="nonzero" xlink:href="#path-4"></use>
        </g>
    </g>
</svg>