<?xml version="1.0" encoding="UTF-8"?>
<svg width="80px" height="80px" viewBox="0 0 80 80" version="1.1" xmlns="http://www.w3.org/2000/svg" xmlns:xlink="http://www.w3.org/1999/xlink">
    <!-- Generator: Sketch 63.1 (92452) - https://sketch.com -->
    <title>ICO_CAMERA</title>
    <desc>Created with Sketch.</desc>
    <g id="页面-1" stroke="none" stroke-width="1" fill="none" fill-rule="evenodd">
        <g id="固定监控" fill-rule="nonzero">
            <path d="M60.8828733,12.5171266 C55.1714556,6.80570888 47.6857278,3.95 40.2,3.95 C32.7142722,3.95 25.2285444,6.80570888 19.5171266,12.5171266 C13.8057089,18.2285444 10.95,25.7142722 10.95,33.2 C10.95,40.6857278 13.8057089,48.1714556 19.5171266,53.8828733 L40.6596194,74.1061273 L60.8828733,53.8828733 C66.5942911,48.1714556 69.45,40.6857278 69.45,33.2 C69.45,25.7142722 66.5942911,18.2285444 60.8828733,12.5171266 Z" id="Combined-Shape" stroke="#FFFFFF" stroke-width="3.9" fill="#00A53A"></path>
            <path d="M27.2,41.3581543 L31.6445195,41.3581543 L33.4264141,36.0124706 L25.6338864,33.9244691 C24.9403805,33.7386448 24.5288232,33.0258067 24.7146476,32.3323008 L25.3875771,29.8208936 L53.0130557,37.2231183 L52.3401262,39.7345255 C52.1543019,40.4280314 51.4414638,40.8395886 50.7479579,40.6537643 L37.2003047,37.0236816 L34.4554805,45.2581543 L27.2,45.2581543 L27.2,50.4581543 L23.3,50.4581543 L23.3,37.4581543 L27.2,37.4581543 L27.2,41.3581543 Z M30.344393,16.3446191 L58.7935747,23.9675543 C59.4870806,24.1533787 59.8986379,24.8662167 59.7128135,25.5597227 C59.6800672,25.6819335 59.6296557,25.7987093 59.5631734,25.9063565 L53.3495205,35.9674148 L25.7240419,28.5651901 L28.7522247,17.2638579 C28.938049,16.570352 29.6508871,16.1587947 30.344393,16.3446191 Z M58.1711032,30.5300588 L60.0546586,31.0347559 L57.6994053,39.8246809 L53.9322946,38.8152867 L54.6052241,36.3038795 L58.1711032,30.5300588 Z" id="Combined-Shape" fill="#FFFFFF"></path>
        </g>
    </g>
</svg>