<?xml version="1.0" encoding="UTF-8"?>
<svg width="36px" height="36px" viewBox="0 0 36 36" version="1.1" xmlns="http://www.w3.org/2000/svg" xmlns:xlink="http://www.w3.org/1999/xlink">
    <!-- Generator: Sketch 63.1 (92452) - https://sketch.com -->
    <title>ico_Vehicle_Truck</title>
    <desc>Created with Sketch.</desc>
    <defs>
        <linearGradient x1="50%" y1="100%" x2="50%" y2="3.061617e-15%" id="linearGradient-1">
            <stop stop-color="#CBE7FF" offset="0%"></stop>
            <stop stop-color="#00D3FF" offset="100%"></stop>
        </linearGradient>
        <path d="M23.3753257,7.00011266 C22.8631123,7.00080249 22.4111665,7.33537175 22.261068,7.82509956 L21.7985022,9.33356316 L5.16666667,9.33356316 C4.5215,9.33356316 4,9.85506316 4,10.5002298 L4,17.0627298 C4,17.5865632 4.34932553,18.0472145 4.85449219,18.1883812 L7.5,18.9198263 L7.5,21.3625347 C6.98523283,21.5896403 6.53728942,21.9126658 6.18977862,22.3036158 C5.48984955,23.0910353 5.16666667,24.0951375 5.16666667,25.0835632 C5.16666667,26.0719888 5.48984955,27.076091 6.18977862,27.8635105 C6.88970768,28.6509312 7.98611138,29.1668965 9.25,29.1668965 C10.5138886,29.1668965 11.6102923,28.6509312 12.3102214,27.8635105 C12.8633203,27.2412747 13.0099342,26.445181 13.1191406,25.6668965 L21.547852,25.6668965 C21.651732,26.458418 21.9610037,27.2311398 22.5231118,27.8635105 C23.2230407,28.6509312 24.3194448,29.1668965 25.5833333,29.1668965 C26.8472218,29.1668965 27.943626,28.6509312 28.6435548,27.8635105 C29.205663,27.2311398 29.5149347,26.458418 29.6188147,25.6668965 L30.8333333,25.6668965 C31.4776389,25.6668321 32,25.1445353 32,24.5002298 L32,17.5002298 C32,17.3191 31.9579151,17.1404476 31.8769528,16.9784195 L29.5436195,12.3117533 C29.3459381,11.916509 28.9419231,11.6668664 28.5,11.6668965 L23.5234375,11.6668965 L23.5462237,11.5939798 L23.7786458,10.8488626 C23.7826335,10.8362772 23.7819428,10.8227885 23.7854813,10.8101257 L24.238932,9.33356316 L28.5,9.33356316 C28.9207419,9.3395135 29.3120949,9.11845865 29.5242023,8.75504484 C29.7363098,8.39163102 29.7363098,7.94216196 29.5242023,7.57874815 C29.3120949,7.21533434 28.9207419,6.99427949 28.5,7.00011266 L23.3753257,7.00011266 Z M22.7942708,14.0002298 L27.7799473,14.0002298 L28.946614,16.3335632 L22.0651042,16.3335632 L22.7942708,14.0002298 Z M21.338216,18.6577825 C21.3918676,18.6645661 21.445926,18.6676114 21.5,18.6668965 L29.6666667,18.6668965 L29.6666667,23.3335632 L29.2861327,23.3335632 C29.1237292,22.9676988 28.9210815,22.6158322 28.6435548,22.3036158 C27.943626,21.5161952 26.8472218,21.0002298 25.5833333,21.0002298 C24.3194448,21.0002298 23.2230407,21.5161952 22.5231118,22.3036158 C22.2455852,22.6158322 22.0429375,22.9676988 21.880534,23.3335632 L12.6884765,23.3335632 C12.529749,22.994195 12.5694741,22.5952732 12.3102214,22.3036158 C11.7275335,21.6480915 10.8332831,21.2568265 9.83333333,21.1187188 L9.83333333,19.5669612 L19.0755208,22.1258812 C19.1793542,22.1538812 19.28275,22.1668965 19.3854167,22.1668965 C19.8835833,22.1668965 20.3433958,21.8458625 20.4973958,21.3488625 L21.338216,18.6577825 Z M9.25,23.3335632 C9.93055505,23.3335632 10.292486,23.5467645 10.5647786,23.8530938 C10.8370714,24.1594243 11,24.6136555 11,25.0835632 C11,25.5534708 10.8370714,26.007702 10.5647786,26.3140325 C10.292486,26.6203618 9.93055505,26.8335632 9.25,26.8335632 C8.56944495,26.8335632 8.20751403,26.6203618 7.93522138,26.3140325 C7.66292862,26.007702 7.5,25.5534708 7.5,25.0835632 C7.5,24.6136555 7.66292862,24.1594243 7.93522138,23.8530938 C8.20751403,23.5467645 8.56944495,23.3335632 9.25,23.3335632 Z M25.5833333,23.3335632 C26.2638885,23.3335632 26.6258188,23.5467645 26.8981118,23.8530938 C27.1704048,24.1594243 27.3333333,24.6136555 27.3333333,25.0835632 C27.3333333,25.5534708 27.1704048,26.007702 26.8981118,26.3140325 C26.6258188,26.6203618 26.2638885,26.8335632 25.5833333,26.8335632 C24.9027782,26.8335632 24.5408478,26.6203618 24.2685548,26.3140325 C23.9962618,26.007702 23.8333333,25.5534708 23.8333333,25.0835632 C23.8333333,24.6136555 23.9962618,24.1594243 24.2685548,23.8530938 C24.5408478,23.5467645 24.9027782,23.3335632 25.5833333,23.3335632 Z" id="path-2"></path>
        <filter x="-13.4%" y="-16.9%" width="126.8%" height="133.8%" filterUnits="objectBoundingBox" id="filter-3">
            <feMorphology radius="0.25" operator="dilate" in="SourceAlpha" result="shadowSpreadOuter1"></feMorphology>
            <feOffset dx="0" dy="0" in="shadowSpreadOuter1" result="shadowOffsetOuter1"></feOffset>
            <feGaussianBlur stdDeviation="1" in="shadowOffsetOuter1" result="shadowBlurOuter1"></feGaussianBlur>
            <feColorMatrix values="0 0 0 0 0   0 0 0 0 0.55354021   0 0 0 0 1  0 0 0 0.70036604 0" type="matrix" in="shadowBlurOuter1"></feColorMatrix>
        </filter>
    </defs>
    <g id="ico_Vehicle_Truck" stroke="none" stroke-width="1" fill="none" fill-rule="evenodd">
        <g id="编组-37">
            <rect id="矩形" stroke="#9D9D9D" stroke-width="2" fill="#D8D8D8" opacity="0" x="1" y="1" width="34" height="34"></rect>
            <g id="形状" fill-rule="nonzero">
                <use fill="black" fill-opacity="1" filter="url(#filter-3)" xlink:href="#path-2"></use>
                <use fill="url(#linearGradient-1)" xlink:href="#path-2"></use>
            </g>
        </g>
    </g>
</svg>