<?xml version="1.0" encoding="UTF-8"?>
<svg width="64px" height="64px" viewBox="0 0 64 64" version="1.1" xmlns="http://www.w3.org/2000/svg" xmlns:xlink="http://www.w3.org/1999/xlink">
    <!-- Generator: Sketch 63.1 (92452) - https://sketch.com -->
    <title>ICO_MEMBER</title>
    <desc>Created with Sketch.</desc>
    <g id="页面-1" stroke="none" stroke-width="1" fill="none" fill-rule="evenodd">
        <g id="车载备份-2" fill-rule="nonzero">
            <path d="M47.9099026,11.0900974 C43.5165043,6.69669914 37.7582521,4.5 32,4.5 C26.2417479,4.5 20.4834957,6.69669914 16.0900974,11.0900974 C11.6966991,15.4834957 9.5,21.2417479 9.5,27 C9.5,32.7582521 11.6966991,38.5165043 16.0900974,42.9099026 L32.3535534,58.4662518 L47.9099026,42.9099026 C52.3033009,38.5165043 54.5,32.7582521 54.5,27 C54.5,21.2417479 52.3033009,15.4834957 47.9099026,11.0900974 Z" id="Combined-Shape" stroke="#FFFFFF" stroke-width="3" fill="#0495FF"></path>
            <g id="人员" transform="translate(20.000000, 12.000000)" fill="#FFFFFF">
                <path d="M11.5000012,0 L11.5000007,0 C7.2537921,0.00116419454 3.8124976,3.44518772 3.81367837,7.69240275 C3.81484259,11.9396466 7.25802667,15.3817801 11.5042065,15.380599 C15.7495797,15.3794347 19.1905288,11.9367076 19.1905288,7.69029935 L19.1905288,7.69053507 C19.1848529,3.44487598 15.7448557,0.00475945257 11.5002315,0 L11.5000012,0 Z M17.4269887,15.2056989 L17.4269892,15.2056989 C13.9698798,18.003497 9.02802055,18.003497 5.57091123,15.2056989 L5.57091134,15.2056989 C2.32466636,17.3132962 0.260557978,20.8272102 0,24.689504 L0,24.6895038 C1.92143215,24.9159593 3.85541823,25.0187369 5.79004092,24.9972016 L17.2057523,24.9972016 L17.2057533,24.9972016 C19.1417587,25.0187207 21.0771592,24.915944 23,24.6895038 L23,24.6895024 C22.7422439,20.8258256 20.6764996,17.3104767 17.4269879,15.2056989 L17.4269887,15.2056989 Z" id="形状"></path>
            </g>
        </g>
    </g>
</svg>