<?xml version="1.0" encoding="UTF-8"?>
<svg width="56px" height="56px" viewBox="0 0 56 56" version="1.1" xmlns="http://www.w3.org/2000/svg" xmlns:xlink="http://www.w3.org/1999/xlink">
    <!-- Generator: Sketch 63.1 (92452) - https://sketch.com -->
    <title>ico_School</title>
    <desc>Created with Sketch.</desc>
    <defs>
        <linearGradient x1="50%" y1="100%" x2="50%" y2="3.061617e-15%" id="linearGradient-1">
            <stop stop-color="#E6FEFF" offset="0%"></stop>
            <stop stop-color="#36C6FF" offset="100%"></stop>
        </linearGradient>
        <path d="M37,21 L37,13 L28,8 L19,13 L19,21 L10,21 L10,48 L46,48 L46,21 L37,21 Z M35,33 L35,28 L39,28 L39,33 L35,33 Z M39,36 L39,41 L35,41 L35,36 L39,36 Z M26,28 L30,28 L30,33 L26,33 L26,28 Z M26.2,20.8124 L26.2,17.2124 L29.8,17.2124 L29.8,20.8124 L26.2,20.8124 Z M17,33 L17,28 L21,28 L21,33 L17,33 Z M21,36 L21,41 L17,41 L17,36 L21,36 Z M26,36 L30,36 L30,44 L26,44 L26,36 Z" id="path-2"></path>
        <filter x="-27.1%" y="-24.6%" width="154.2%" height="148.9%" filterUnits="objectBoundingBox" id="filter-3">
            <feMorphology radius="0.25" operator="dilate" in="SourceAlpha" result="shadowSpreadOuter1"></feMorphology>
            <feOffset dx="0" dy="0" in="shadowSpreadOuter1" result="shadowOffsetOuter1"></feOffset>
            <feGaussianBlur stdDeviation="3" in="shadowOffsetOuter1" result="shadowBlurOuter1"></feGaussianBlur>
            <feColorMatrix values="0 0 0 0 0   0 0 0 0 0.55354021   0 0 0 0 1  0 0 0 0.70036604 0" type="matrix" in="shadowBlurOuter1"></feColorMatrix>
        </filter>
    </defs>
    <g id="ico_School" stroke="none" stroke-width="1" fill="none" fill-rule="evenodd">
        <g id="SVG-Layer">
            <rect id="矩形" stroke="#9D9D9D" stroke-width="2" fill="#D8D8D8" opacity="0" x="1" y="1" width="54" height="54"></rect>
            <g id="形状" fill-rule="nonzero">
                <use fill="black" fill-opacity="1" filter="url(#filter-3)" xlink:href="#path-2"></use>
                <use fill="url(#linearGradient-1)" xlink:href="#path-2"></use>
            </g>
        </g>
    </g>
</svg>