<?xml version="1.0" encoding="UTF-8"?>
<svg width="36px" height="36px" viewBox="0 0 36 36" version="1.1" xmlns="http://www.w3.org/2000/svg" xmlns:xlink="http://www.w3.org/1999/xlink">
    <!-- Generator: Sketch 63.1 (92452) - https://sketch.com -->
    <title>ico_Equipments_02</title>
    <desc>Created with Sketch.</desc>
    <defs>
        <linearGradient x1="50%" y1="100%" x2="50%" y2="3.061617e-15%" id="linearGradient-1">
            <stop stop-color="#FFE6E6" offset="0%"></stop>
            <stop stop-color="#FF6767" offset="100%"></stop>
        </linearGradient>
        <path d="M25,13 L25,31 C25,31.5522847 24.5522847,32 24,32 L12,32 C11.4477153,32 11,31.5522847 11,31 L11,13 L25,13 Z M18,15 C15.2385763,15 13,17.2385763 13,20 C13,22.7614237 15.2385763,25 18,25 C20.7614237,25 23,22.7614237 23,20 C23,17.2385763 20.7614237,15 18,15 Z M18,17 C19.6568542,17 21,18.3431458 21,20 C21,21.6568542 19.6568542,23 18,23 C16.3431458,23 15,21.6568542 15,20 C15,18.3431458 16.3431458,17 18,17 Z M18,4 C21.7854517,4 24.8690987,7.00478338 24.995941,10.7593502 L25,11 L11,11 C11,7.13400675 14.1340068,4 18,4 Z M9,16 L9,23 L6,23 C5.44771525,23 5,22.5522847 5,22 L5,17 C5,16.4477153 5.44771525,16 6,16 L9,16 Z M30,16 C30.5522847,16 31,16.4477153 31,17 L31,22 C31,22.5522847 30.5522847,23 30,23 L27,23 L27,16 L30,16 Z M26,9 L26,11 L10,11 L10,9 L26,9 Z" id="path-2"></path>
        <filter x="-37.5%" y="-34.8%" width="175.0%" height="169.6%" filterUnits="objectBoundingBox" id="filter-3">
            <feMorphology radius="0.25" operator="dilate" in="SourceAlpha" result="shadowSpreadOuter1"></feMorphology>
            <feOffset dx="0" dy="0" in="shadowSpreadOuter1" result="shadowOffsetOuter1"></feOffset>
            <feGaussianBlur stdDeviation="3" in="shadowOffsetOuter1" result="shadowBlurOuter1"></feGaussianBlur>
            <feColorMatrix values="0 0 0 0 1   0 0 0 0 0   0 0 0 0 0  0 0 0 0.70036604 0" type="matrix" in="shadowBlurOuter1"></feColorMatrix>
        </filter>
    </defs>
    <g id="ico_Equipments_02" stroke="none" stroke-width="1" fill="none" fill-rule="evenodd">
        <g id="编组-37">
            <rect id="矩形" stroke="#9D9D9D" stroke-width="2" fill="#D8D8D8" opacity="0" x="1" y="1" width="34" height="34"></rect>
            <g id="形状结合" fill-rule="nonzero">
                <use fill="black" fill-opacity="1" filter="url(#filter-3)" xlink:href="#path-2"></use>
                <use fill="url(#linearGradient-1)" xlink:href="#path-2"></use>
            </g>
        </g>
    </g>
</svg>