<?xml version="1.0" encoding="UTF-8"?>
<svg width="96px" height="96px" viewBox="0 0 96 96" version="1.1" xmlns="http://www.w3.org/2000/svg" xmlns:xlink="http://www.w3.org/1999/xlink">
    <!-- Generator: Sketch 63.1 (92452) - https://sketch.com -->
    <title>ico_alert_Smoke</title>
    <desc>Created with Sketch.</desc>
    <defs>
        <linearGradient x1="50%" y1="0%" x2="50%" y2="100%" id="linearGradient-1">
            <stop stop-color="#FF3900" offset="0%"></stop>
            <stop stop-color="#FF8B8B" offset="100%"></stop>
        </linearGradient>
        <radialGradient cx="50%" cy="50%" fx="50%" fy="50%" r="49.9155762%" id="radialGradient-2">
            <stop stop-color="#FF0000" offset="0%"></stop>
            <stop stop-color="#FF6600" stop-opacity="0.15" offset="60.9352172%"></stop>
            <stop stop-color="#FF5400" stop-opacity="0" offset="99.9155405%"></stop>
        </radialGradient>
        <linearGradient x1="50%" y1="-2.48949813e-15%" x2="50%" y2="100%" id="linearGradient-3">
            <stop stop-color="#FF0000" offset="0%"></stop>
            <stop stop-color="#FFBF8A" offset="100%"></stop>
        </linearGradient>
    </defs>
    <g id="ico_alert_Smoke" stroke="none" stroke-width="1" fill="none" fill-rule="evenodd">
        <g id="ico_alert_XiYan">
            <path d="M48,20.1547005 L23.8852633,34.0773503 L23.8852633,61.9226497 L48,75.8452995 L72.1147367,61.9226497 L72.1147367,34.0773503 L48,20.1547005 Z" id="多边形" stroke="url(#linearGradient-1)" stroke-width="2" fill-opacity="0" fill="#D8D8D8"></path>
            <path d="M20.9810023,65.5149701 L45.941007,79.8862275 L45.941,96 L43.94,96 L43.941,81.042 L20.981,67.822 L0,79.902 L0,77.595 L20.9810023,65.5149701 Z M75.0209977,65.5149701 L96,77.594 L96,79.902 L75.021,67.822 L52.06,81.042 L52.059,96 L50.06,96 L50.060993,79.8862275 L75.0209977,65.5149701 Z M0,22.285 L18.9210094,33.1796407 L18.9210094,61.9221557 L0,72.816 L0,70.507 L16.921,60.765 L16.921,34.335 L0,24.591 L0,22.285 Z M96,22.286 L96,24.592 L79.08,34.335 L79.08,60.765 L96,70.507 L96,72.815 L77.0809906,61.9221557 L77.0809906,33.1796407 L96,22.286 Z M45.941,0 L45.941007,16.1137725 L20.9810023,30.4850299 L0,18.404 L0,16.097 L20.981,28.177 L43.941,14.957 L43.94,0 L45.941,0 Z M52.059,0 L52.06,14.957 L75.021,28.177 L96,16.097 L96,18.405 L75.0209977,30.4850299 L50.060993,16.1137725 L50.06,0 L52.059,0 Z" id="形状结合" fill="url(#radialGradient-2)"></path>
            <path d="M36.3296452,48.6698742 C36.9454375,49.2044924 37.8246784,49.7365879 38.4923383,49.9404683 L38.6452465,49.9843174 L38.7025581,49.995502 C38.7891194,50.0075982 38.908151,50.0016489 38.9623013,49.8963009 C39.0961413,49.6342395 38.830598,49.3782644 38.830598,49.3782644 L38.7631337,49.3314785 L38.6590536,49.2537598 C38.3295567,48.9989036 37.6201468,48.3697947 37.3873162,47.5247673 C37.0882938,46.442085 37.9644536,45.3782972 38.1389222,45.0878091 L38.2441795,44.8983241 L38.2978123,44.7946339 L38.3730503,44.6322004 C38.5505265,44.2188261 38.7235849,43.5669782 38.5171255,42.7200438 C38.2176848,41.4886241 37.05605,40.5010164 36.0708414,40.0779144 L35.9765146,40.0389961 L35.9341707,40.0250398 C35.8428109,39.9984263 35.6581866,39.9657216 35.5403274,40.0870361 C35.3680362,40.264604 35.5905265,40.6094818 35.5905265,40.6094818 L35.6692308,40.7030949 L35.7385232,40.7897687 C35.99739,41.1200933 36.5119305,41.8488435 36.5847866,42.5052446 C36.6820157,43.3877756 35.8385911,43.8205366 35.5708191,44.2850382 L35.4717422,44.459188 L35.3817374,44.627314 C35.1393684,45.0983696 34.894786,45.7455158 35.0472437,46.4327953 C35.2159107,47.1931463 35.6779897,48.0589313 36.2475507,48.5955104 L36.3296452,48.6698742 Z M42.3034852,43.1172458 C41.753272,44.1120083 40.8693996,45.2162649 40.11316,45.7811788 L39.9387568,45.9066689 L39.8711573,45.9465269 C39.7670195,46.0001706 39.6142214,46.0430682 39.5010927,45.922283 C39.2207654,45.6214502 39.4472206,45.1577183 39.4472206,45.1577183 L39.5125083,45.0648444 L39.6108764,44.9139911 L39.7117802,44.7474557 C40.0372596,44.1906518 40.5402743,43.134827 40.4816305,42.0054336 C40.3990425,40.3973253 38.8408907,39.3188528 38.4971924,38.9965814 L38.2837903,38.7826994 L38.1720193,38.6639584 L38.0349066,38.5067715 C37.6308486,38.0218593 37.1150561,37.1965205 37.013555,35.9222285 C36.8682893,34.1106321 37.9150967,32.2626731 38.9790634,31.2619704 L39.0816066,31.1683346 L39.1291324,31.1311046 C39.2331589,31.0555601 39.4523376,30.9317064 39.6527097,31.0469496 C39.9456439,31.2158583 39.8113195,31.7826539 39.8113195,31.7826539 L39.7517411,31.9443545 L39.7010957,32.0925349 L39.630032,32.3166935 C39.4419813,32.9373285 39.1967664,33.9809775 39.3617317,34.8002128 C39.6140169,36.0482246 40.8626884,36.2781823 41.3981231,36.7983124 L41.5972062,36.9938823 L41.7822766,37.1851076 C42.2884267,37.7250867 42.8722007,38.5048148 42.9717913,39.5096148 C43.0819704,40.621245 42.8665394,42.0027806 42.3755236,42.9804037 L42.3034852,43.1172458 Z M38.8370383,52.4550719 L42.2984705,58.4504484 L61.6012638,47.3059755 C62.385044,46.8534598 62.6726697,45.8693975 62.2782616,45.0607933 L62.2193509,44.9501539 L60.4881936,41.9517017 C60.0108458,41.124911 58.9603897,40.8368496 58.1398308,41.3105995 L38.8370383,52.4550719 Z M35.1681077,55.2396689 L38.0524909,60.2355671 C38.2113127,60.5106544 38.5620537,60.6076948 38.8360786,60.4494864 L40.8148056,59.3070679 L37.3533751,53.3116945 L35.3746482,54.4541131 C35.1248472,54.5983357 35.0252723,54.9058096 35.1334244,55.1691188 L35.1681077,55.2396689 Z" id="形状" fill="url(#linearGradient-3)"></path>
        </g>
    </g>
</svg>