<?xml version="1.0" encoding="UTF-8"?>
<svg width="56px" height="56px" viewBox="0 0 56 56" version="1.1" xmlns="http://www.w3.org/2000/svg" xmlns:xlink="http://www.w3.org/1999/xlink">
    <!-- Generator: Sketch 63.1 (92452) - https://sketch.com -->
    <title>ico_Elevator</title>
    <desc>Created with Sketch.</desc>
    <defs>
        <linearGradient x1="50%" y1="100%" x2="50%" y2="3.061617e-15%" id="linearGradient-1">
            <stop stop-color="#E6FEFF" offset="0%"></stop>
            <stop stop-color="#36C6FF" offset="100%"></stop>
        </linearGradient>
        <path d="M11,8 L11,48 L7,48 L7,8 L11,8 Z M49,8 L49,48 L45,48 L45,8 L49,8 Z M27,12 L27,44 L13,44 L13,12 L27,12 Z M43,12 L43,44 L29,44 L29,12 L43,12 Z M22,26 L18,26 L18,32 L16,32 L20,38 L24,32 L22,32 L22,26 Z M36,22 L32,28 L34,28 L34,34 L38,34 L38,28 L40,28 L36,22 Z" id="path-2"></path>
        <filter x="-21.4%" y="-22.5%" width="142.9%" height="145.0%" filterUnits="objectBoundingBox" id="filter-3">
            <feOffset dx="0" dy="0" in="SourceAlpha" result="shadowOffsetOuter1"></feOffset>
            <feGaussianBlur stdDeviation="3" in="shadowOffsetOuter1" result="shadowBlurOuter1"></feGaussianBlur>
            <feColorMatrix values="0 0 0 0 0   0 0 0 0 0.55354021   0 0 0 0 1  0 0 0 0.70036604 0" type="matrix" in="shadowBlurOuter1"></feColorMatrix>
        </filter>
    </defs>
    <g id="ico_Elevator" stroke="none" stroke-width="1" fill="none" fill-rule="evenodd">
        <g>
            <rect id="矩形" fill-opacity="0" fill="#D8D8D8" x="0" y="0" width="56" height="56"></rect>
            <g id="形状结合" fill-rule="nonzero">
                <use fill="black" fill-opacity="1" filter="url(#filter-3)" xlink:href="#path-2"></use>
                <use fill="url(#linearGradient-1)" xlink:href="#path-2"></use>
            </g>
        </g>
    </g>
</svg>