<?xml version="1.0" encoding="UTF-8"?>
<svg width="56px" height="56px" viewBox="0 0 56 56" version="1.1" xmlns="http://www.w3.org/2000/svg" xmlns:xlink="http://www.w3.org/1999/xlink">
    <!-- Generator: Sketch 63.1 (92452) - https://sketch.com -->
    <title>ico_Important</title>
    <desc>Created with Sketch.</desc>
    <defs>
        <linearGradient x1="50%" y1="100%" x2="50%" y2="3.061617e-15%" id="linearGradient-1">
            <stop stop-color="#FFE6E6" offset="0%"></stop>
            <stop stop-color="#FF6767" offset="100%"></stop>
        </linearGradient>
        <path d="M40.3879306,27.7426033 C45.6687962,27.7426033 49.9527855,32.0265927 49.9527855,37.3074582 C49.9527855,42.5926206 45.673093,46.8723131 40.3879306,46.8723131 C35.1070651,46.8723131 30.8230758,42.5926206 30.8230758,37.3074582 C30.8230758,32.0265927 35.1070651,27.7426033 40.3879306,27.7426033 Z M40.3879306,29.6633087 C36.1640976,29.6633087 32.7394842,33.0879221 32.7394842,37.3117551 C32.7394842,41.5355881 36.1640976,44.9602015 40.3879306,44.9602015 C44.6117637,44.9602015 48.036377,41.5355881 48.036377,37.3117551 C48.036377,33.0879221 44.6117637,29.6633087 40.3879306,29.6633087 Z M40.3879306,40.5644933 C41.0453533,40.5644933 41.5824633,41.0973064 41.5824633,41.7590259 C41.5824633,42.4164485 41.0496502,42.9535585 40.3879306,42.9535585 C39.730508,42.9535585 39.193398,42.4207454 39.193398,41.7590259 C39.193398,41.1016033 39.730508,40.5644933 40.3879306,40.5644933 Z M28.3308854,10.0007858 C28.5543231,9.99219207 28.6832295,10.0523484 28.7519796,10.2671924 C29.022683,11.1437559 29.4437773,11.6550846 30.5137004,11.7882879 C31.9445614,11.9687569 32.8855782,13.0214925 33.4570632,14.3320409 C34.2562829,16.1754024 34.4195643,18.0703265 33.7621417,19.9953287 C33.6719072,20.2144696 33.5687821,20.4250167 33.4527663,20.6312669 C33.856673,20.9019704 34.002767,21.3230646 34.0328451,21.7828308 C34.0930014,22.5906442 33.8824543,23.3984577 33.4355788,24.0773647 C33.319563,24.2750212 33.1519847,24.4340057 32.9457345,24.5414277 C32.6879217,24.6445529 32.6191716,24.7906468 32.5633122,25.0355689 C32.284015,26.3117423 31.9144833,27.5492437 30.9433884,28.507448 C30.887529,28.5804949 30.8617477,28.6707294 30.8660446,28.7652608 C30.8789352,29.4484647 30.9176071,30.1359655 30.921904,30.8234663 C29.6543244,32.6668278 28.915261,34.9012054 28.9109642,37.316052 C28.9109642,38.9144913 29.2418239,40.4957432 29.8906528,41.9609793 L29.8906528,41.9609793 L13.1199302,41.9609793 C12.9695394,41.9609793 12.8191486,41.9566824 12.6730546,41.9394949 C12.4410231,41.9051198 12.2347729,41.7805103 12.1015696,41.5871507 C11.9683663,41.398088 11.9168038,41.1574627 11.9640694,40.9297281 C12.3851637,38.6695692 13.8246185,37.2043331 15.7882926,36.2117538 C17.030091,35.5801125 18.3707175,35.1117525 19.6597815,34.5273769 C20.467595,34.1664389 21.2496271,33.7496416 21.9972842,33.2769848 C22.7105663,32.8172186 23.1789262,32.1683897 23.1574418,31.2402637 C23.1402543,30.4152627 23.18752,29.5988555 23.2004106,28.7781514 C23.2047075,28.6836201 23.1789262,28.5890887 23.1230668,28.5160417 C22.0961125,27.5535406 21.6879089,26.285961 21.4043148,24.9668189 C21.3828304,24.7691624 21.253924,24.5972872 21.0648613,24.5285371 C20.321501,24.1718961 20.1367352,23.4800984 19.9906413,22.741035 C19.8402505,22.0062685 19.8961099,21.3058771 20.4375168,20.7086108 C20.50197,20.6441576 20.4418137,20.4336105 20.394548,20.3047041 C19.7972817,18.7234522 19.6511878,17.1250129 20.0980633,15.4836047 C20.6953296,13.3265709 22.078925,11.8441473 24.0769742,10.9117244 C25.4218976,10.2843799 26.8570555,10.0695359 28.3308854,10.0007858 Z M18.6929835,14.2074313 C18.5554834,14.8218852 18.4007957,15.4191515 18.2976706,16.0121209 C18.0785297,17.3097787 18.1558735,18.6418115 18.5254052,19.9050942 C18.6156397,20.1715008 18.6070459,20.4636886 18.4996239,20.7257983 C17.8937638,22.2168157 18.4050926,24.3910369 19.5652502,25.5082257 C19.7457191,25.6886947 19.8789224,25.9078356 19.9562662,26.1484609 C20.2914229,27.2226809 20.716814,28.2582289 21.4086117,29.15198 C21.4773618,29.2508082 21.5160337,29.366824 21.5160337,29.4871366 C21.5160337,29.9941685 21.4730649,30.5012003 21.4902524,31.0039353 C21.5246274,31.4679983 21.253924,31.9019832 20.8199391,32.0738584 C19.8273598,32.5551089 18.8347806,33.0363595 17.81642,33.4574537 C16.1621212,34.1406577 14.520713,34.8410491 13.1156333,35.9926129 C12.1015696,36.7918326 11.3152406,37.8445682 10.8296931,39.0391009 C10.7050836,39.3527731 10.5375053,39.4558982 10.1980518,39.4516013 C9.18828496,39.4301169 8.17422128,39.4301169 7.16445448,39.4516013 C6.66171952,39.464492 6.25351592,39.3441793 6,38.8887101 L6,37.8187869 C6.13320328,37.4062865 6.23203152,36.9808953 6.39101608,36.5898793 C6.96250112,35.2234714 8.05390864,34.3726892 9.32148824,33.7324541 C10.331255,33.2211253 11.3839906,32.8000311 12.410945,32.3187805 C12.8320392,32.1211241 13.2402428,31.8933894 13.6355558,31.6441704 C14.0738375,31.3949513 14.3488378,30.9351852 14.3574316,30.4281533 C14.3660254,29.9769809 14.3875098,29.5215117 14.3875098,29.0746361 C14.3832129,28.9543235 14.3402441,28.8426046 14.2671971,28.7523701 C13.6398526,28.0004161 13.3003991,27.1152589 13.0726645,26.178539 C13.0125082,25.9336169 12.98243,25.6972885 12.6730546,25.6457259 C12.6086014,25.6199446 12.552742,25.5812727 12.5097732,25.5297101 C11.9168038,24.9926001 11.7019598,23.458614 12.157429,22.814082 C12.2906323,22.6465037 12.3164136,22.4144721 12.2175854,22.2254094 C11.3753969,19.9523599 11.9039131,17.6492322 13.6785246,16.0078241 C14.8558697,14.9207134 16.2996214,14.4265722 17.8765763,14.2589939 C18.1429829,14.2289157 18.4179832,14.2246189 18.6929835,14.2074313 Z M41.8230886,31.8504206 L41.4707444,38.7254286 L39.3051169,38.7254286 L38.9527727,31.8504206 L41.8230886,31.8504206 Z M37.8055058,14.2074313 C37.8828496,14.2074313 38.0160529,14.3320409 38.046131,14.4222753 C38.2566782,15.1183699 38.6133192,15.4921985 39.4297264,15.616808 C40.6844154,15.8058707 41.4062912,16.7640749 41.8273854,17.9113419 C42.2828547,19.1230621 42.3601986,20.4422042 42.0422294,21.6968932 C41.9562918,21.989081 41.8531667,22.2726751 41.737151,22.5519723 C42.381683,23.3039263 42.1410577,24.4984589 41.6684009,25.3277568 C41.6211352,25.4093975 41.5609789,25.5168195 41.4793382,25.5383039 C41.3117598,25.5898665 41.1699628,25.7015853 41.0840252,25.856273 C38.1406624,25.6715072 35.2359715,26.6340083 32.9844064,28.5461199 C33.426985,27.8027597 33.6676103,26.9562743 34.0113607,26.1570546 C34.0930014,25.9465075 34.2133141,25.7574448 34.3637049,25.5855696 C35.1199558,24.8078343 35.4465186,23.8367394 35.6527689,22.8011913 C35.790269,22.0750186 35.7258158,21.3230646 35.4765968,20.6226732 C35.433628,20.5109543 35.4250342,20.3906417 35.4508155,20.2746259 C36.005113,18.3668112 35.9148786,16.4718871 35.3390966,14.5855568 C35.3305029,14.5211036 35.326206,14.4523535 35.326206,14.3836034 C36.1555038,14.3191502 36.9805048,14.254697 37.8055058,14.2074313 Z" id="path-2"></path>
        <filter x="-22.2%" y="-26.4%" width="144.4%" height="152.9%" filterUnits="objectBoundingBox" id="filter-3">
            <feMorphology radius="0.25" operator="dilate" in="SourceAlpha" result="shadowSpreadOuter1"></feMorphology>
            <feOffset dx="0" dy="0" in="shadowSpreadOuter1" result="shadowOffsetOuter1"></feOffset>
            <feGaussianBlur stdDeviation="3" in="shadowOffsetOuter1" result="shadowBlurOuter1"></feGaussianBlur>
            <feColorMatrix values="0 0 0 0 1   0 0 0 0 0   0 0 0 0 0  0 0 0 0.70036604 0" type="matrix" in="shadowBlurOuter1"></feColorMatrix>
        </filter>
    </defs>
    <g id="ico_Important" stroke="none" stroke-width="1" fill="none" fill-rule="evenodd">
        <g id="ico_ZDRQ">
            <rect id="矩形" stroke="#9D9D9D" stroke-width="2" fill="#D8D8D8" opacity="0" x="1" y="1" width="54" height="54"></rect>
            <g id="形状结合" fill-rule="nonzero">
                <use fill="black" fill-opacity="1" filter="url(#filter-3)" xlink:href="#path-2"></use>
                <use fill="url(#linearGradient-1)" xlink:href="#path-2"></use>
            </g>
        </g>
    </g>
</svg>