<?xml version="1.0" encoding="UTF-8"?>
<svg width="56px" height="56px" viewBox="0 0 56 56" version="1.1" xmlns="http://www.w3.org/2000/svg" xmlns:xlink="http://www.w3.org/1999/xlink">
    <!-- Generator: Sketch 63.1 (92452) - https://sketch.com -->
    <title>ico_Hospital</title>
    <desc>Created with Sketch.</desc>
    <defs>
        <linearGradient x1="50%" y1="100%" x2="50%" y2="3.061617e-15%" id="linearGradient-1">
            <stop stop-color="#FFE6E6" offset="0%"></stop>
            <stop stop-color="#FF6767" offset="100%"></stop>
        </linearGradient>
        <path d="M16.61408,8.00016739 C16.019877,7.99166694 15.4671792,8.30745826 15.1676254,8.82661868 C14.8680715,9.34577909 14.8680715,9.98787506 15.1676254,10.5070355 C15.4671792,11.0261959 16.019877,11.3419872 16.61408,11.3334868 L39.38592,11.3334868 C39.980123,11.3419872 40.5328208,11.0261959 40.8323746,10.5070355 C41.1319285,9.98787506 41.1319285,9.34577909 40.8323746,8.82661868 C40.5328208,8.30745826 39.980123,7.99166694 39.38592,8.00016739 L16.61408,8.00016739 Z M10,15 L10,18 L12,18 L12,48 L22,48 L22,39 L33,39 L33,48 L44,48 L44,18 L46,18 L46,15 L10,15 Z M28.5,21.3334449 C29.4095046,21.3334449 30.1476533,22.0801085 30.1476533,23.0001046 L30.1476533,26.333424 L33.44296,26.333424 C34.3524646,26.333424 35.0906133,27.0800875 35.0906133,28.0000837 C35.0906133,28.9200798 34.3524646,29.6667434 33.44296,29.6667434 L30.1476533,29.6667434 L30.1476533,33.0000628 C30.1476533,33.9200589 29.4095046,34.6667225 28.5,34.6667225 C27.5904954,34.6667225 26.8523467,33.9200589 26.8523467,33.0000628 L26.8523467,29.6667434 L23.55704,29.6667434 C22.6475354,29.6667434 21.9093867,28.9200798 21.9093867,28.0000837 C21.9093867,27.0800875 22.6475354,26.333424 23.55704,26.333424 L26.8523467,26.333424 L26.8523467,23.0001046 C26.8523467,22.0801085 27.5904954,21.3334449 28.5,21.3334449 Z" id="path-2"></path>
        <filter x="-27.1%" y="-24.4%" width="154.2%" height="148.8%" filterUnits="objectBoundingBox" id="filter-3">
            <feMorphology radius="0.25" operator="dilate" in="SourceAlpha" result="shadowSpreadOuter1"></feMorphology>
            <feOffset dx="0" dy="0" in="shadowSpreadOuter1" result="shadowOffsetOuter1"></feOffset>
            <feGaussianBlur stdDeviation="3" in="shadowOffsetOuter1" result="shadowBlurOuter1"></feGaussianBlur>
            <feColorMatrix values="0 0 0 0 1   0 0 0 0 0   0 0 0 0 0  0 0 0 0.70036604 0" type="matrix" in="shadowBlurOuter1"></feColorMatrix>
        </filter>
    </defs>
    <g id="ico_Hospital" stroke="none" stroke-width="1" fill="none" fill-rule="evenodd">
        <g id="SVG-Layer备份">
            <rect id="矩形" stroke="#9D9D9D" stroke-width="2" fill="#D8D8D8" opacity="0" x="1" y="1" width="54" height="54"></rect>
            <g id="形状" fill-rule="nonzero">
                <use fill="black" fill-opacity="1" filter="url(#filter-3)" xlink:href="#path-2"></use>
                <use fill="url(#linearGradient-1)" xlink:href="#path-2"></use>
            </g>
        </g>
    </g>
</svg>