<?xml version="1.0" encoding="UTF-8"?>
<svg width="36px" height="36px" viewBox="0 0 36 36" version="1.1" xmlns="http://www.w3.org/2000/svg" xmlns:xlink="http://www.w3.org/1999/xlink">
    <!-- Generator: Sketch 63.1 (92452) - https://sketch.com -->
    <title>ico_Equipments_04</title>
    <desc>Created with Sketch.</desc>
    <defs>
        <linearGradient x1="50%" y1="100%" x2="50%" y2="3.061617e-15%" id="linearGradient-1">
            <stop stop-color="#FFE6E6" offset="0%"></stop>
            <stop stop-color="#FF6767" offset="100%"></stop>
        </linearGradient>
        <path d="M30,6 L30,8 L27,8 L27,10 L23,10 L23,19 L18,21 L13,19 L13,10 L9,10 L9,8 L6,8 L6,6 L30,6 Z M17,11 L15,11 L15,17 L17,17 L17,11 Z M21,11 L19,11 L19,17 L21,17 L21,11 Z M13,21 L23,21 C23.5522847,21 24,21.4477153 24,22 C24,22.5522847 23.5522847,23 23,23 L13,23 C12.4477153,23 12,22.5522847 12,22 C12,21.4477153 12.4477153,21 13,21 Z M13,25 C13.5522847,25 14,25.4477153 14,26 C14,26.5522847 13.5522847,27 13,27 C12.4477153,27 12,26.5522847 12,26 C12,25.4477153 12.4477153,25 13,25 Z M10,28 C10.5522847,28 11,28.4477153 11,29 C11,29.5522847 10.5522847,30 10,30 C9.44771525,30 9,29.5522847 9,29 C9,28.4477153 9.44771525,28 10,28 Z M18,28 C18.5522847,28 19,28.4477153 19,29 C19,29.5522847 18.5522847,30 18,30 C17.4477153,30 17,29.5522847 17,29 C17,28.4477153 17.4477153,28 18,28 Z M26,28 C26.5522847,28 27,28.4477153 27,29 C27,29.5522847 26.5522847,30 26,30 C25.4477153,30 25,29.5522847 25,29 C25,28.4477153 25.4477153,28 26,28 Z M18,25 C18.5522847,25 19,25.4477153 19,26 C19,26.5522847 18.5522847,27 18,27 C17.4477153,27 17,26.5522847 17,26 C17,25.4477153 17.4477153,25 18,25 Z M23,25 C23.5522847,25 24,25.4477153 24,26 C24,26.5522847 23.5522847,27 23,27 C22.4477153,27 22,26.5522847 22,26 C22,25.4477153 22.4477153,25 23,25 Z" id="path-2"></path>
        <filter x="-40.6%" y="-40.6%" width="181.2%" height="181.2%" filterUnits="objectBoundingBox" id="filter-3">
            <feMorphology radius="0.25" operator="dilate" in="SourceAlpha" result="shadowSpreadOuter1"></feMorphology>
            <feOffset dx="0" dy="0" in="shadowSpreadOuter1" result="shadowOffsetOuter1"></feOffset>
            <feGaussianBlur stdDeviation="3" in="shadowOffsetOuter1" result="shadowBlurOuter1"></feGaussianBlur>
            <feColorMatrix values="0 0 0 0 1   0 0 0 0 0   0 0 0 0 0  0 0 0 0.70036604 0" type="matrix" in="shadowBlurOuter1"></feColorMatrix>
        </filter>
    </defs>
    <g id="ico_Equipments_04" stroke="none" stroke-width="1" fill="none" fill-rule="evenodd">
        <g id="编组-37">
            <rect id="矩形" stroke="#9D9D9D" stroke-width="2" fill="#D8D8D8" opacity="0" x="1" y="1" width="34" height="34"></rect>
            <g id="形状结合" fill-rule="nonzero">
                <use fill="black" fill-opacity="1" filter="url(#filter-3)" xlink:href="#path-2"></use>
                <use fill="url(#linearGradient-1)" xlink:href="#path-2"></use>
            </g>
        </g>
    </g>
</svg>