<?xml version="1.0" encoding="UTF-8"?>
<svg width="56px" height="56px" viewBox="0 0 56 56" version="1.1" xmlns="http://www.w3.org/2000/svg" xmlns:xlink="http://www.w3.org/1999/xlink">
    <!-- Generator: Sketch 63.1 (92452) - https://sketch.com -->
    <title>ico_Constraction_Wait</title>
    <desc>Created with Sketch.</desc>
    <defs>
        <linearGradient x1="50%" y1="100%" x2="50%" y2="3.061617e-15%" id="linearGradient-1">
            <stop stop-color="#E6FEFF" offset="0%"></stop>
            <stop stop-color="#36C6FF" offset="100%"></stop>
        </linearGradient>
        <path d="M47.5856287,18.6027792 L42.4720246,15.6669904 L37.3652254,17.6118233 L37.3652254,11.1841518 L26.4720144,6 L20.083998,8.77084177 L20.083998,18.423347 L21.739997,19.1151584 L21.739997,9.55553498 L26.4715976,7.82760987 L26.4715976,48.2452489 L24.6447977,48.2452489 L24.6447977,29.437479 L13.2328053,24.2545064 L8.35799805,26.3291377 L8.35799805,48.2464553 L6,48.2464553 L6,50 L50,50 L50,48.2464553 L47.5796021,48.2464553 L47.5856287,18.6027792 Z M15.405208,30.1801123 L22.9951833,33.528264 L22.9951833,48.3885537 L15.405208,48.3885537 L15.405208,48.3845501 L15.405208,30.1801123 Z M37.0076148,19.7188816 L42.114414,17.7748515 L42.114414,48.2463963 L37.0076148,48.2463963 L37.0076148,19.7188816 Z M9.84400725,27.3327927 L12.8788061,26.0356481 L12.8788061,48.2463963 L9.84400725,48.2463963 L9.84400725,27.3327927 Z" id="path-2"></path>
        <filter x="-22.2%" y="-22.3%" width="144.3%" height="144.4%" filterUnits="objectBoundingBox" id="filter-3">
            <feMorphology radius="0.25" operator="dilate" in="SourceAlpha" result="shadowSpreadOuter1"></feMorphology>
            <feOffset dx="0" dy="0" in="shadowSpreadOuter1" result="shadowOffsetOuter1"></feOffset>
            <feGaussianBlur stdDeviation="3" in="shadowOffsetOuter1" result="shadowBlurOuter1"></feGaussianBlur>
            <feColorMatrix values="0 0 0 0 0.57254902   0 0 0 0 0.466666667   0 0 0 0 0  0 0 0 0.7 0" type="matrix" in="shadowBlurOuter1"></feColorMatrix>
        </filter>
    </defs>
    <g id="ico_Constraction_Wait" stroke="none" stroke-width="1" fill="none" fill-rule="evenodd">
        <g>
            <rect id="矩形" fill-opacity="0" fill="#D8D8D8" x="0" y="0" width="56" height="56"></rect>
            <g id="形状" fill-rule="nonzero">
                <use fill="black" fill-opacity="1" filter="url(#filter-3)" xlink:href="#path-2"></use>
                <use fill="url(#linearGradient-1)" xlink:href="#path-2"></use>
                <use fill="#FFC900" style="mix-blend-mode: hue;" xlink:href="#path-2"></use>
            </g>
        </g>
    </g>
</svg>