<?xml version="1.0" encoding="UTF-8"?>
<svg width="56px" height="56px" viewBox="0 0 56 56" version="1.1" xmlns="http://www.w3.org/2000/svg" xmlns:xlink="http://www.w3.org/1999/xlink">
    <!-- Generator: Sketch 63.1 (92452) - https://sketch.com -->
    <title>jy</title>
    <desc>Created with Sketch.</desc>
    <defs>
        <linearGradient x1="50%" y1="100%" x2="50%" y2="3.061617e-15%" id="linearGradient-1">
            <stop stop-color="#E6FEFF" offset="0%"></stop>
            <stop stop-color="#36C6FF" offset="100%"></stop>
        </linearGradient>
        <path d="M37,21.4 L37,13.0876 L28,8.5876 L19,13.0876 L19,21.4 L10,21.4 L10,46.6 L46,46.6 L46,21.4 L37,21.4 Z M35.2,32.2 L35.2,28.6 L38.8,28.6 L38.8,32.2 L35.2,32.2 Z M38.8,35.8 L38.8,39.4 L35.2,39.4 L35.2,35.8 L38.8,35.8 Z M26.2,28.6 L29.8,28.6 L29.8,32.2 L26.2,32.2 L26.2,28.6 Z M26.2,21.4 L26.2,17.8 L29.8,17.8 L29.8,21.4 L26.2,21.4 Z M17.2,32.2 L17.2,28.6 L20.8,28.6 L20.8,32.2 L17.2,32.2 Z M20.8,35.8 L20.8,39.4 L17.2,39.4 L17.2,35.8 L20.8,35.8 Z M26.2,35.8 L29.8,35.8 L29.8,43 L26.2,43 L26.2,35.8 Z" id="path-2"></path>
        <filter x="-27.1%" y="-25.8%" width="154.2%" height="151.5%" filterUnits="objectBoundingBox" id="filter-3">
            <feMorphology radius="0.25" operator="dilate" in="SourceAlpha" result="shadowSpreadOuter1"></feMorphology>
            <feOffset dx="0" dy="0" in="shadowSpreadOuter1" result="shadowOffsetOuter1"></feOffset>
            <feGaussianBlur stdDeviation="3" in="shadowOffsetOuter1" result="shadowBlurOuter1"></feGaussianBlur>
            <feColorMatrix values="0 0 0 0 0   0 0 0 0 0.55354021   0 0 0 0 1  0 0 0 0.70036604 0" type="matrix" in="shadowBlurOuter1"></feColorMatrix>
        </filter>
    </defs>
    <g id="页面-1" stroke="none" stroke-width="1" fill="none" fill-rule="evenodd">
        <g id="主页" transform="translate(-2194.000000, -215.000000)">
            <g id="编组-7" transform="translate(2190.000000, 100.000000)">
                <g id="编组-19" transform="translate(0.000000, 115.000000)">
                    <g id="编组-9备份-3" transform="translate(4.000000, 0.000000)">
                        <g id="SVG-Layer">
                            <rect id="矩形" stroke="#9D9D9D" stroke-width="2" fill="#D8D8D8" opacity="0" x="1" y="1" width="54" height="54"></rect>
                            <g id="形状" fill-rule="nonzero">
                                <use fill="black" fill-opacity="1" filter="url(#filter-3)" xlink:href="#path-2"></use>
                                <use fill="url(#linearGradient-1)" xlink:href="#path-2"></use>
                            </g>
                        </g>
                    </g>
                </g>
            </g>
        </g>
    </g>
</svg>